External Loads File
version=1
nRows=39
nColumns=13
Range=5.000000e-03-10 seconds
endheader
time 	forceRightX 	forceRightY 	forceRightZ 	pointRightX 	pointRightY 	pointRightZ 	forceLeftX 	forceLeftY 	forceLeftZ 	pointLeftX 	pointLeftY 	pointLeftZ 		
7.505000 3.566312 141.172610 -0.000000 0.407927 0.404825 -0.113789 13.522803 178.402646 -0.000000 0.127048 0.267058 -0.353261
7.510000 4.112815 142.206471 -0.000000 0.408090 0.403710 -0.113732 12.574984 178.267427 -0.000000 0.127502 0.268055 -0.356411
7.515000 5.052043 143.411492 -0.000000 0.408244 0.402662 -0.113650 11.675538 178.066640 -0.000000 0.126517 0.269001 -0.353328
7.520000 5.996184 144.752750 -0.000000 0.408393 0.401596 -0.113565 10.453492 177.882158 -0.000000 0.126248 0.269977 -0.353289
7.525000 6.971564 146.159968 -0.000000 0.408663 0.400664 -0.113711 9.088609 177.735632 -0.000000 0.126008 0.270877 -0.353338
7.530000 8.083244 147.548960 -0.000000 0.408783 0.399546 -0.113701 7.884029 177.634644 -0.000000 0.125755 0.271857 -0.353342
7.535000 9.015240 148.867515 -0.000000 0.408902 0.398637 -0.113671 6.641580 177.602631 -0.000000 0.125567 0.272729 -0.353395
7.540000 9.945771 150.058482 -0.000000 0.409029 0.397525 -0.113690 5.729421 177.633493 -0.000000 0.125442 0.273654 -0.353441
7.545000 10.667944 151.106327 -0.000000 0.409170 0.396633 -0.113693 4.983507 177.737682 -0.000000 0.125094 0.274570 -0.353359
7.550000 11.368580 151.982514 -0.000000 0.409327 0.395397 -0.113673 4.622357 177.902205 -0.000000 0.124907 0.275497 -0.353339
7.555000 11.832383 152.694302 -0.000000 0.409496 0.394463 -0.113702 4.345975 178.112976 -0.000000 0.124660 0.276461 -0.353417
7.560000 12.257094 153.213598 -0.000000 0.409691 0.393412 -0.113669 4.337269 178.320507 -0.000000 0.124391 0.277439 -0.353394
7.565000 12.567406 153.514039 -0.000000 0.409900 0.392408 -0.113743 4.469119 178.458728 -0.000000 0.124128 0.278441 -0.353490
7.570000 12.879499 153.532804 -0.000000 0.410142 0.391238 -0.113710 4.842753 178.445204 -0.000000 0.123821 0.279510 -0.353403
7.575000 13.015813 153.224651 -0.000000 0.410394 0.390140 -0.113747 5.217316 178.215755 -0.000000 0.123482 0.280574 -0.353505
7.580000 13.048433 152.538186 -0.000000 0.410696 0.389007 -0.113746 5.630776 177.720837 -0.000000 0.123182 0.281710 -0.353361
7.585000 12.913085 151.466002 -0.000000 0.410919 0.387896 -0.113755 5.962560 176.944027 -0.000000 0.122802 0.282817 -0.353524
7.590000 12.784386 150.025549 -0.000000 0.411297 0.386711 -0.113771 6.401610 175.894963 -0.000000 0.122384 0.284039 -0.353426
7.595000 12.577858 148.300616 -0.000000 0.411810 0.385549 -0.113807 6.884022 174.636178 -0.000000 0.121965 0.285253 -0.353380
7.600000 12.342913 146.389930 -0.000000 0.412110 0.384316 -0.113791 7.559592 173.265715 -0.000000 0.121469 0.286551 -0.353324
7.605000 12.061035 144.408922 -0.000000 0.412516 0.383034 -0.113792 8.532887 171.909874 -0.000000 0.120986 0.287884 -0.353348
7.610000 11.618588 142.488181 -0.000000 0.412979 0.381827 -0.113788 9.771622 170.705415 -0.000000 0.120562 0.289206 -0.353384
7.615000 11.098011 140.741035 -0.000000 0.413422 0.380543 -0.113777 11.410558 169.755524 -0.000000 0.120036 0.290515 -0.353305
7.620000 10.464012 139.271313 -0.000000 0.413863 0.379297 -0.113799 13.355597 169.122752 -0.000000 0.119610 0.291828 -0.353325
7.625000 9.746341 138.140766 -0.000000 0.414231 0.378170 -0.113811 15.499792 168.807430 -0.000000 0.119105 0.293119 -0.353351
7.630000 9.238303 137.346655 -0.000000 0.414734 0.376649 -0.113811 18.008977 168.727912 -0.000000 0.118696 0.294389 -0.353286
7.635000 8.486479 136.892304 -0.000000 0.415051 0.375748 -0.113828 20.124077 168.867607 -0.000000 0.118344 0.295562 -0.353320
7.640000 7.993845 136.686716 -0.000000 0.415366 0.374503 -0.113795 22.261208 169.077474 -0.000000 0.118026 0.296676 -0.353325
7.645000 7.579444 136.670849 -0.000000 0.415581 0.373431 -0.113786 24.008278 169.302744 -0.000000 0.117695 0.297747 -0.353307
7.650000 7.262451 136.771393 -0.000000 0.415781 0.372485 -0.113780 25.237000 169.468196 -0.000000 0.117560 0.298734 -0.353326
7.655000 7.131657 136.916826 -0.000000 0.415927 0.371618 -0.113781 25.954210 169.490265 -0.000000 0.117308 0.299697 -0.353362
7.660000 7.199605 137.045965 -0.000000 0.416027 0.370669 -0.113755 26.125820 169.307256 -0.000000 0.117219 0.300559 -0.353392
7.665000 7.417300 137.105383 -0.000000 0.416089 0.369814 -0.113794 25.719738 168.890001 -0.000000 0.117100 0.301365 -0.353426
7.670000 7.788249 137.047738 -0.000000 0.416136 0.369017 -0.113768 24.850326 168.232980 -0.000000 0.117130 0.302171 -0.353422
7.675000 8.333221 136.843864 -0.000000 0.416139 0.368177 -0.113750 23.688407 167.359860 -0.000000 0.117139 0.302921 -0.353383
7.680000 8.981391 136.497500 -0.000000 0.416143 0.367465 -0.113772 22.294053 166.324810 -0.000000 0.117122 0.303654 -0.353377
7.685000 9.736239 136.034677 -0.000000 0.416121 0.366720 -0.113783 20.825268 165.169121 -0.000000 0.117156 0.304334 -0.353375
7.690000 10.571182 135.499569 -0.000000 0.416093 0.365950 -0.113772 19.411840 163.939640 -0.000000 0.117196 0.305054 -0.353350
7.695000 11.309319 134.950551 -0.000000 0.416058 0.365265 -0.113766 17.990401 162.704967 -0.000000 0.117260 0.305701 -0.353352
